<svg xmlns="http://www.w3.org/2000/svg" width="65.055" height="31.555" viewBox="0 0 65.055 31.555">
  <g id="Group_3" data-name="Group 3" transform="translate(-120.676 -23.658)">
    <g id="Group_2" data-name="Group 2" transform="translate(120.676 23.658)">
      <g id="Group_1" data-name="Group 1">
        <path id="Path_1" data-name="Path 1" d="M140.139,57.106a3.4,3.4,0,0,1-3.449-3.637H136.6c-1.37,2.409-4.346,3.92-7.7,3.92-5.48,0-8.22-3.684-8.22-7.369,0-3.07,1.984-7.085,8.5-7.463l7.274-.425V40.384a4.706,4.706,0,0,0-1.228-3.637,5.386,5.386,0,0,0-3.921-1.229,5.923,5.923,0,0,0-4.346,1.417,3.919,3.919,0,0,0-1.181,2.882h-3.92a7.079,7.079,0,0,1,2.078-5.007c1.606-1.7,4.44-2.551,7.369-2.551,4.63,0,7.275,1.984,8.408,4.582a9.143,9.143,0,0,1,.709,3.684V52.1c0,1.275.52,1.606,1.323,1.606a5.808,5.808,0,0,0,1.039-.142v2.976A5.56,5.56,0,0,1,140.139,57.106Zm-3.685-11.857-6.424.378c-2.41.142-5.244,1.275-5.244,4.3,0,2.125,1.323,4.109,4.724,4.109a6.733,6.733,0,0,0,4.913-1.936,7.713,7.713,0,0,0,2.031-5.433Z" transform="translate(-120.676 -25.834)" fill="#161615"/>
        <path id="Path_2" data-name="Path 2" d="M172.386,54.791a9.483,9.483,0,0,1-6.9,2.6A10,10,0,0,1,156.75,52.9c-1.275-1.89-1.984-4.488-1.984-8.078s.709-6.188,1.984-8.077a9.913,9.913,0,0,1,8.693-4.488,9.5,9.5,0,0,1,6.8,2.551,9.165,9.165,0,0,1,2.834,6.141h-4.062a6,6,0,0,0-1.7-3.732,5.6,5.6,0,0,0-3.873-1.464,6.038,6.038,0,0,0-4.158,1.558c-1.889,1.606-2.409,4.582-2.409,7.511s.52,5.9,2.409,7.511a6.035,6.035,0,0,0,4.158,1.559,5.586,5.586,0,0,0,4.062-1.606,5.906,5.906,0,0,0,1.606-3.543h4.063A8.985,8.985,0,0,1,172.386,54.791Z" transform="translate(-129.301 -25.834)" fill="#161615"/>
        <path id="Path_3" data-name="Path 3" d="M197.587,54.93c-5.149,0-6.566-3.259-6.566-6.472V34.145h-4.63V30.7h4.63V24.6l4.015-.945V30.7h7.086v3.448h-7.086V47.986c0,2.315.992,3.259,3.212,3.259a29.5,29.5,0,0,0,4.11-.425v3.449A17.32,17.32,0,0,1,197.587,54.93Z" transform="translate(-137.303 -23.658)" fill="#161615"/>
      </g>
    </g>
  </g>
</svg>
