<svg xmlns="http://www.w3.org/2000/svg" width="15.754" height="13.5" viewBox="0 0 15.754 13.5">
  <path id="Icon_ionic-md-eye-off" data-name="Icon ionic-md-eye-off" d="M10.129,7.341a3.571,3.571,0,0,1,3.582,3.554,3.419,3.419,0,0,1-.257,1.3l2.092,2.074A8.4,8.4,0,0,0,18,10.895,8.484,8.484,0,0,0,7.27,6.061L8.817,7.6A3.542,3.542,0,0,1,10.129,7.341ZM2.967,5.4,4.6,7.024l.33.327A8.364,8.364,0,0,0,2.25,10.895a8.5,8.5,0,0,0,11.014,4.732l.3.3L15.666,18l.911-.9L3.874,4.5ZM6.926,9.33l1.111,1.1a2.014,2.014,0,0,0-.056.461,2.137,2.137,0,0,0,2.148,2.13,2.02,2.02,0,0,0,.464-.056l1.111,1.1a3.564,3.564,0,0,1-5.157-3.178A3.512,3.512,0,0,1,6.926,9.33Zm3.087-.552,2.257,2.239.014-.113a2.137,2.137,0,0,0-2.148-2.13Z" transform="translate(-2.25 -4.5)"/>
</svg>
