<svg xmlns="http://www.w3.org/2000/svg" width="21.959" height="9.647" viewBox="0 0 21.959 9.647">
  <path id="noun-shipping-5125530" d="M75.835,153.04a.558.558,0,0,0-.39.156.524.524,0,0,0-.161.378v.848a.523.523,0,0,0,.162.375.558.558,0,0,0,.389.154.541.541,0,0,0,.548-.53V154.1h8.8v6.2h-4.5a1.937,1.937,0,0,0-3.679,0h-1.17a.558.558,0,0,0-.39.156.52.52,0,0,0,0,.754.558.558,0,0,0,.389.154h1.173a1.936,1.936,0,0,0,3.673,0h6.07a1.936,1.936,0,0,0,3.673,0h1.023a.541.541,0,0,0,.547-.53V157.72a.52.52,0,0,0-.085-.287l-1.82-2.76a.554.554,0,0,0-.462-.243H86.28v-.856a.523.523,0,0,0-.161-.378.558.558,0,0,0-.39-.156Zm-.973,2.312a.558.558,0,0,0-.389.154.52.52,0,0,0,0,.754.558.558,0,0,0,.39.156h3.352a.558.558,0,0,0,.39-.156.52.52,0,0,0,0-.754.558.558,0,0,0-.389-.154Zm11.417.141h3.048l1.569,2.379V160.3h-.469a1.937,1.937,0,0,0-3.679,0H86.28Zm-13.557,1.613a.558.558,0,0,0-.388.157.524.524,0,0,0-.16.377.541.541,0,0,0,.548.531h4.421a.558.558,0,0,0,.389-.155.522.522,0,0,0,0-.754.558.558,0,0,0-.39-.156Zm-2.14,1.76a.558.558,0,0,0-.388.157.524.524,0,0,0-.159.377.541.541,0,0,0,.547.53h5.492a.558.558,0,0,0,.389-.154.52.52,0,0,0,0-.754.558.558,0,0,0-.39-.156Zm8.26,1.166a.8.8,0,1,1-.824.794A.8.8,0,0,1,78.843,160.032Zm9.747,0a.8.8,0,1,1-.823.794A.8.8,0,0,1,88.59,160.032Z" transform="translate(-70.036 -153.04)" fill-rule="evenodd"/>
</svg>
