<svg xmlns="http://www.w3.org/2000/svg" width="24.203" height="25.458" viewBox="0 0 24.203 25.458">
  <g id="noun-bag-1665853" transform="translate(-176.621 -104.598)">
    <path id="Path_12" data-name="Path 12" d="M200.619,114.163a.8.8,0,0,0-.6-.265h-6.662v-4.941a4.632,4.632,0,0,0-9.247,0V113.9h-6.682a.8.8,0,0,0-.8.888l.933,8.845a7.172,7.172,0,0,0,7.156,6.425h8.041a7.176,7.176,0,0,0,7.136-6.432l.929-8.845h0a.8.8,0,0,0-.2-.615ZM185.7,108.957a3.023,3.023,0,0,1,6.031,0V113.9H185.7Zm12.588,14.493a5.569,5.569,0,0,1-5.552,5H184.7a5.576,5.576,0,0,1-5.54-5l-.836-7.945H184.1V119.4a.8.8,0,1,0,1.608,0v-3.892h6.031V119.4a.8.8,0,1,0,1.608,0v-3.892h5.777Z" transform="translate(0)"/>
  </g>
</svg>
