<svg xmlns="http://www.w3.org/2000/svg" width="11.333" height="11.334" viewBox="0 0 11.333 11.334">
  <g id="noun-store-5320839" transform="translate(-84 -14)">
    <path id="Path_15" data-name="Path 15" d="M201.238,283.643a3.238,3.238,0,0,0,3.238-3.238.4.4,0,0,0-.81,0,2.429,2.429,0,1,1-4.857,0,.4.4,0,0,0-.81,0A3.238,3.238,0,0,0,201.238,283.643Z" transform="translate(-111.571 -260.333)"/>
    <path id="Path_16" data-name="Path 16" d="M94.119,14h-8.9a1.162,1.162,0,0,0-.81.315,1.2,1.2,0,0,0-.4.9v8.9a1.214,1.214,0,0,0,1.214,1.214h8.9a1.214,1.214,0,0,0,1.214-1.214v-8.9A1.226,1.226,0,0,0,94.119,14Zm-.43.81L91.862,16.1a.4.4,0,0,0,0,.66l1.805,1.29h-8l1.805-1.29a.4.4,0,0,0,0-.66L85.644,14.81Zm-8.88.4,1.729,1.219-1.729,1.235Zm9.714,8.907a.4.4,0,0,1-.4.4h-8.9a.4.4,0,0,1-.4-.4V18.857h9.714Zm0-6.453-1.729-1.235,1.729-1.219Z" transform="translate(0 0)"/>
  </g>
</svg>
