<svg xmlns="http://www.w3.org/2000/svg" width="20.203" height="21.25" viewBox="0 0 20.203 21.25">
  <g id="noun-bag-1665853" transform="translate(-176.621 -104.598)">
    <path id="Path_12" data-name="Path 12" d="M196.652,112.583a.671.671,0,0,0-.5-.221h-5.561v-4.124a3.866,3.866,0,0,0-7.719,0v4.124H177.3a.671.671,0,0,0-.671.742l.779,7.383a5.987,5.987,0,0,0,5.973,5.363h6.712a5.99,5.99,0,0,0,5.957-5.369l.775-7.383h0a.67.67,0,0,0-.168-.513Zm-12.45-4.346a2.524,2.524,0,0,1,5.034,0v4.124H184.2Zm10.508,12.1a4.648,4.648,0,0,1-4.635,4.171h-6.712a4.654,4.654,0,0,1-4.624-4.171l-.7-6.631h4.819v3.248a.671.671,0,1,0,1.342,0V113.7h5.034v3.248a.671.671,0,1,0,1.342,0V113.7H195.4Z" transform="translate(0)" fill="#fff"/>
  </g>
</svg>
